<svg width="16" height="16" viewBox="0 0 16 16" fill="none" xmlns="http://www.w3.org/2000/svg">
<path d="M14 4.66634V11.333C14 13.333 13 14.6663 10.6667 14.6663H5.33333C3 14.6663 2 13.333 2 11.333V4.66634C2 2.66634 3 1.33301 5.33333 1.33301H10.6667C13 1.33301 14 2.66634 14 4.66634Z" stroke="#004225" stroke-width="1.5" stroke-miterlimit="10" stroke-linecap="round" stroke-linejoin="round"/>
<path d="M10.3333 1.33301V6.573C10.3333 6.86633 9.98661 7.01299 9.77327 6.81966L8.22664 5.39303C8.09998 5.27303 7.89994 5.27303 7.77327 5.39303L6.22664 6.81966C6.01331 7.01299 5.66663 6.86633 5.66663 6.573V1.33301H10.3333Z" stroke="#004225" stroke-width="1.5" stroke-miterlimit="10" stroke-linecap="round" stroke-linejoin="round"/>
<path d="M8.83337 9.33301H11.6667" stroke="#004225" stroke-width="1.5" stroke-miterlimit="10" stroke-linecap="round" stroke-linejoin="round"/>
<path d="M6 12H11.6667" stroke="#004225" stroke-width="1.5" stroke-miterlimit="10" stroke-linecap="round" stroke-linejoin="round"/>
</svg>
