<svg width="20" height="20" viewBox="0 0 20 20" fill="none" xmlns="http://www.w3.org/2000/svg">
<path d="M10.4166 18.333H3.39993C2.43327 18.333 1.6416 17.558 1.6416 16.608V4.24131C1.6416 2.05797 3.2666 1.06631 5.25827 2.04131L8.95827 3.85797C9.75827 4.24964 10.4166 5.29131 10.4166 6.17464V18.333Z" stroke="#004225" stroke-width="1.5" stroke-linecap="round" stroke-linejoin="round"/>
<path d="M18.3084 12.5503V15.7003C18.3084 17.5003 17.4751 18.3336 15.6751 18.3336H10.4167V8.68359L10.8084 8.76693L14.5584 9.60859L16.2501 9.98359C17.3501 10.2253 18.2501 10.7919 18.3001 12.3919C18.3084 12.4419 18.3084 12.4919 18.3084 12.5503Z" stroke="#004225" stroke-width="1.5" stroke-linecap="round" stroke-linejoin="round"/>
<path d="M4.58325 7.5H7.47492" stroke="#004225" stroke-width="1.5" stroke-linecap="round" stroke-linejoin="round"/>
<path d="M4.58325 10.833H7.47492" stroke="#004225" stroke-width="1.5" stroke-linecap="round" stroke-linejoin="round"/>
<path d="M14.5583 9.60827V12.2916C14.5583 13.3249 13.7167 14.1666 12.6833 14.1666C11.65 14.1666 10.8083 13.3249 10.8083 12.2916V8.7666L14.5583 9.60827Z" stroke="#004225" stroke-width="1.5" stroke-linecap="round" stroke-linejoin="round"/>
<path d="M18.3 12.3917C18.25 13.3751 17.4334 14.1667 16.4334 14.1667C15.4 14.1667 14.5583 13.3251 14.5583 12.2917V9.6084L16.25 9.9834C17.35 10.2251 18.25 10.7917 18.3 12.3917Z" stroke="#004225" stroke-width="1.5" stroke-linecap="round" stroke-linejoin="round"/>
</svg>
