<svg width="24" height="25" viewBox="0 0 24 25" fill="none" xmlns="http://www.w3.org/2000/svg">
<path d="M8.67188 14.811C8.67188 16.101 9.66188 17.141 10.8919 17.141H13.4019C14.4719 17.141 15.3419 16.231 15.3419 15.111C15.3419 13.891 14.8119 13.461 14.0219 13.181L9.99187 11.781C9.20187 11.501 8.67188 11.071 8.67188 9.85104C8.67188 8.73104 9.54187 7.82104 10.6119 7.82104H13.1219C14.3519 7.82104 15.3419 8.86104 15.3419 10.151" stroke="#202020" stroke-width="1.5" stroke-linecap="round" stroke-linejoin="round"/>
<path d="M12 6.4812V18.4812" stroke="#202020" stroke-width="1.5" stroke-linecap="round" stroke-linejoin="round"/>
<path d="M12 22.4812C17.5228 22.4812 22 18.004 22 12.4812C22 6.95835 17.5228 2.4812 12 2.4812C6.47715 2.4812 2 6.95835 2 12.4812C2 18.004 6.47715 22.4812 12 22.4812Z" stroke="#202020" stroke-width="1.5" stroke-linecap="round" stroke-linejoin="round"/>
</svg>
