<svg width="20" height="21" viewBox="0 0 20 21" fill="none" xmlns="http://www.w3.org/2000/svg">
<path d="M8.9584 2.52256C9.54173 2.03089 10.4834 2.03089 11.0501 2.52256L12.3667 3.64756C12.6167 3.85589 13.0917 4.03089 13.4251 4.03089H14.8417C15.7251 4.03089 16.4501 4.75589 16.4501 5.63923V7.05589C16.4501 7.38923 16.6251 7.85589 16.8334 8.10589L17.9584 9.42256C18.4501 10.0059 18.4501 10.9476 17.9584 11.5142L16.8334 12.8309C16.6251 13.0809 16.4501 13.5476 16.4501 13.8809V15.2976C16.4501 16.1809 15.7251 16.9059 14.8417 16.9059H13.4251C13.0917 16.9059 12.6251 17.0809 12.3751 17.2892L11.0584 18.4142C10.4751 18.9059 9.5334 18.9059 8.96673 18.4142L7.65007 17.2892C7.40007 17.0809 6.92507 16.9059 6.60007 16.9059H5.14173C4.2584 16.9059 3.5334 16.1809 3.5334 15.2976V13.8726C3.5334 13.5476 3.36673 13.0726 3.1584 12.8309L2.0334 11.5059C1.55007 10.9309 1.55007 9.99756 2.0334 9.42256L3.1584 8.09756C3.36673 7.84756 3.5334 7.38089 3.5334 7.05589V5.64756C3.5334 4.76423 4.2584 4.03923 5.14173 4.03923H6.5834C6.91673 4.03923 7.3834 3.86423 7.6334 3.65589L8.9584 2.52256Z" stroke="#004225" stroke-width="1.5" stroke-linecap="round" stroke-linejoin="round"/>
<path d="M10 7.25586V11.2809" stroke="#004225" stroke-width="1.5" stroke-linecap="round" stroke-linejoin="round"/>
<path d="M9.99536 13.8142H10.0028" stroke="#004225" stroke-width="2" stroke-linecap="round" stroke-linejoin="round"/>
</svg>
