<svg width="25" height="24" viewBox="0 0 25 24" fill="none" xmlns="http://www.w3.org/2000/svg">
<path d="M9.49307 10.87C9.39307 10.86 9.27307 10.86 9.16307 10.87C6.78307 10.79 4.89307 8.84 4.89307 6.44C4.89307 3.99 6.87307 2 9.33307 2C11.7831 2 13.7731 3.99 13.7731 6.44C13.7631 8.84 11.8731 10.79 9.49307 10.87Z" stroke="#3F3F3F" stroke-width="1.5" stroke-linecap="round" stroke-linejoin="round"/>
<path d="M16.7428 4C18.6828 4 20.2428 5.57 20.2428 7.5C20.2428 9.39 18.7428 10.93 16.8728 11C16.7928 10.99 16.7028 10.99 16.6128 11" stroke="#3F3F3F" stroke-width="1.5" stroke-linecap="round" stroke-linejoin="round"/>
<path d="M4.49322 14.56C2.07322 16.18 2.07322 18.82 4.49322 20.43C7.24322 22.27 11.7532 22.27 14.5032 20.43C16.9232 18.81 16.9232 16.17 14.5032 14.56C11.7632 12.73 7.25322 12.73 4.49322 14.56Z" stroke="#3F3F3F" stroke-width="1.5" stroke-linecap="round" stroke-linejoin="round"/>
<path d="M18.6729 20C19.3929 19.85 20.0729 19.56 20.6329 19.13C22.1929 17.96 22.1929 16.03 20.6329 14.86C20.0829 14.44 19.4129 14.16 18.7029 14" stroke="#3F3F3F" stroke-width="1.5" stroke-linecap="round" stroke-linejoin="round"/>
</svg>
