<svg width="12" height="13" viewBox="0 0 12 13" fill="none" xmlns="http://www.w3.org/2000/svg">
<path d="M6.86502 2.23603L7.74502 3.99603C7.86502 4.24103 8.18502 4.47603 8.45502 4.52103L10.05 4.78603C11.07 4.95603 11.31 5.69603 10.575 6.42603L9.33502 7.66603C9.12502 7.87603 9.01002 8.28103 9.07502 8.57103L9.43002 10.106C9.71002 11.321 9.06502 11.791 7.99002 11.156L6.49502 10.271C6.22502 10.111 5.78002 10.111 5.50502 10.271L4.01002 11.156C2.94002 11.791 2.29002 11.316 2.57002 10.106L2.92502 8.57103C2.99002 8.28103 2.87502 7.87603 2.66502 7.66603L1.42502 6.42603C0.695016 5.69603 0.930016 4.95603 1.95002 4.78603L3.54502 4.52103C3.81002 4.47603 4.13002 4.24103 4.25002 3.99603L5.13002 2.23603C5.61002 1.28103 6.39002 1.28103 6.86502 2.23603Z" stroke="#007E47" stroke-width="1.5" stroke-linecap="round" stroke-linejoin="round"/>
</svg>
