<svg width="20" height="21" viewBox="0 0 20 21" fill="none" xmlns="http://www.w3.org/2000/svg">
<path d="M11.4417 3.40615L12.9084 6.33949C13.1084 6.74782 13.6417 7.13949 14.0917 7.21449L16.75 7.65615C18.45 7.93949 18.85 9.17282 17.625 10.3895L15.5584 12.4562C15.2084 12.8062 15.0167 13.4812 15.125 13.9645L15.7167 16.5228C16.1834 18.5478 15.1084 19.3312 13.3167 18.2728L10.825 16.7978C10.375 16.5312 9.63338 16.5312 9.17505 16.7978L6.68338 18.2728C4.90005 19.3312 3.81671 18.5395 4.28338 16.5228L4.87505 13.9645C4.98338 13.4812 4.79171 12.8062 4.44171 12.4562L2.37505 10.3895C1.15838 9.17282 1.55005 7.93949 3.25005 7.65615L5.90838 7.21449C6.35005 7.13949 6.88338 6.74782 7.08338 6.33949L8.55005 3.40615C9.35005 1.81449 10.65 1.81449 11.4417 3.40615Z" stroke="#202020" stroke-width="1.5" stroke-linecap="round" stroke-linejoin="round"/>
</svg>
