<svg width="68" height="68" viewBox="0 0 68 68" fill="none" xmlns="http://www.w3.org/2000/svg">
<path d="M33.8334 6.22266C18.5279 6.22266 6.05566 18.6949 6.05566 34.0004C6.05566 49.306 18.5279 61.7782 33.8334 61.7782C49.139 61.7782 61.6112 49.306 61.6112 34.0004C61.6112 18.6949 49.139 6.22266 33.8334 6.22266ZM47.1112 27.6115L31.3612 43.3615C30.9723 43.7504 30.4446 43.9727 29.889 43.9727C29.3334 43.9727 28.8057 43.7504 28.4168 43.3615L20.5557 35.5004C19.7501 34.6949 19.7501 33.3615 20.5557 32.556C21.3612 31.7504 22.6946 31.7504 23.5001 32.556L29.889 38.9449L44.1668 24.6671C44.9723 23.8615 46.3057 23.8615 47.1112 24.6671C47.9168 25.4727 47.9168 26.7782 47.1112 27.6115Z" fill="#23A26D"/>
</svg>
