<svg width="35" height="33" viewBox="0 0 35 33" fill="none" xmlns="http://www.w3.org/2000/svg">
<path d="M9.31802 7.93052C5.42388 7.59845 1.66128 10.7623 1.91288 14.6625C2.31682 21.7983 8.3082 24.3267 11.8425 24.3267C15.2084 24.3267 21.099 21.933 21.7721 14.6625C22.0238 10.7623 18.2611 7.59845 14.367 7.93052C13.34 8.0181 12.2016 8.63689 11.8425 8.70079C11.4834 8.63689 10.345 8.0181 9.31802 7.93052Z" fill="#00162B" fill-opacity="0.2"/>
<path fill-rule="evenodd" clip-rule="evenodd" d="M22.4433 14.7152L22.4424 14.7245C21.7279 22.4424 15.4443 24.9999 11.8425 24.9999C9.93748 24.9999 7.40988 24.325 5.2945 22.705C3.15755 21.0685 1.45519 18.4759 1.24091 14.7031C0.960358 10.3262 5.14168 6.89875 9.37522 7.25976C9.98625 7.31187 10.6 7.51706 11.0694 7.69508C11.229 7.7556 11.3857 7.81853 11.5196 7.87226C11.5812 7.89703 11.6381 7.91985 11.6881 7.93958C11.7479 7.96321 11.799 7.98283 11.8425 7.99874C11.886 7.98283 11.9371 7.96321 11.9969 7.93958C12.0469 7.91985 12.1038 7.89704 12.1654 7.87227C12.2993 7.81853 12.456 7.7556 12.6156 7.69508C13.085 7.51706 13.6988 7.31187 14.3098 7.25976C18.5442 6.89867 22.7264 10.3276 22.4439 14.7058L22.4433 14.7152ZM11.8425 8.70079C11.7233 8.67957 11.5181 8.59715 11.2596 8.49332C10.7396 8.28449 10.004 7.98902 9.31802 7.93052C5.42388 7.59845 1.66128 10.7623 1.91288 14.6625C2.31682 21.7983 8.3082 24.3267 11.8425 24.3267C15.2084 24.3267 21.099 21.933 21.7721 14.6625C22.0238 10.7623 18.2611 7.59845 14.367 7.93052C13.681 7.98902 12.9454 8.28449 12.4255 8.49332C12.1669 8.59715 11.9618 8.67957 11.8425 8.70079Z" fill="#00162B" fill-opacity="0.2"/>
<path d="M11.4273 6.69309C11.0011 3.55484 8.47666 4.05973 6.96199 2.37673C7.38853 3.41631 10.0082 6.27604 11.4273 6.69309Z" fill="#73B40D"/>
<path fill-rule="evenodd" clip-rule="evenodd" d="M11.8795 7.21964C12.058 7.06621 12.1466 6.8328 12.115 6.59955C11.9952 5.71765 11.72 5.04227 11.3147 4.51038C10.9125 3.98254 10.4169 3.64224 9.93484 3.3794C9.69588 3.2491 9.45148 3.13332 9.22294 3.02595C9.20548 3.01775 9.18812 3.0096 9.17085 3.00149C8.95658 2.90089 8.75632 2.80687 8.55985 2.70424C8.14025 2.48505 7.77885 2.24667 7.47772 1.91208C7.25179 1.66103 6.87799 1.60895 6.59203 1.78866C6.30606 1.96838 6.19087 2.32777 6.31907 2.64024C6.46364 2.99259 6.75734 3.42833 7.09175 3.8577C7.43787 4.30209 7.86793 4.79037 8.3278 5.25616C8.78702 5.72129 9.28575 6.17391 9.77054 6.54193C10.2416 6.8995 10.7527 7.21868 11.231 7.35926C11.4569 7.42563 11.701 7.37307 11.8795 7.21964ZM11.2394 5.85577C11.3208 6.10237 11.3843 6.3795 11.4268 6.69299C11.1946 6.62474 10.9302 6.49106 10.6485 6.31065C9.8447 5.79581 8.90018 4.90037 8.16061 4.05853C7.57575 3.39279 7.11907 2.76058 6.96154 2.37663C7.43728 2.90524 8.01263 3.21801 8.5913 3.49562C8.68537 3.54075 8.77953 3.58495 8.87335 3.62899C9.85646 4.09049 10.8038 4.53517 11.2394 5.85577Z" fill="#436C02"/>
<path d="M11.6744 7.70277C12.1006 4.56452 14.703 3.04982 16.3859 3.38644C13.8615 3.72302 14.5347 6.92069 11.6744 7.70277Z" fill="#73B40D"/>
<path fill-rule="evenodd" clip-rule="evenodd" d="M11.2171 8.2251C11.0418 8.07153 10.9552 7.84025 10.9866 7.60931C11.4566 4.14809 14.377 2.27638 16.5224 2.70547C16.8553 2.77206 17.0913 3.06961 17.0803 3.40895C17.0693 3.74828 16.8145 4.02991 16.478 4.07478C15.609 4.19063 15.2931 4.7293 14.768 5.70628L14.7617 5.71805C14.2572 6.65688 13.5896 7.89909 11.8579 8.37261C11.6331 8.43408 11.3924 8.37868 11.2171 8.2251ZM11.8341 6.91766C11.7658 7.16687 11.7119 7.42862 11.6747 7.70275C11.9595 7.62488 12.2093 7.52306 12.4306 7.40249C13.3321 6.91155 13.7629 6.10986 14.1716 5.34916C14.3761 4.96862 14.575 4.59834 14.8246 4.28235C15.1841 3.82724 15.6487 3.48475 16.3862 3.38643C15.7916 3.26751 15.0823 3.37965 14.3947 3.71281C13.3061 4.24031 12.272 5.32188 11.8341 6.91766Z" fill="#436C02"/>
<path fill-rule="evenodd" clip-rule="evenodd" d="M11.6739 2.0188C12.0575 2.0188 12.3684 2.32971 12.3684 2.71324V7.7622C12.3684 8.14573 12.0575 8.45665 11.6739 8.45665C11.2904 8.45665 10.9795 8.14573 10.9795 7.7622V2.71324C10.9795 2.32971 11.2904 2.0188 11.6739 2.0188Z" fill="#457003"/>
<path d="M8.64463 7.25736C4.75049 6.92529 0.987891 10.0891 1.23949 13.9893C1.64343 21.1252 7.6348 23.6536 11.1691 23.6536C14.5351 23.6536 20.4256 21.2598 21.0987 13.9893C21.3504 10.0891 17.5877 6.92529 13.6936 7.25736C12.6666 7.34494 11.5282 7.96373 11.1691 8.02763C10.81 7.96373 9.67164 7.34494 8.64463 7.25736Z" fill="#FF3A1A"/>
<path fill-rule="evenodd" clip-rule="evenodd" d="M21.7914 14.0438L21.7905 14.0534C21.0746 21.7854 14.7787 24.3481 11.1694 24.3481C9.26005 24.3481 6.72784 23.6718 4.6085 22.0488C2.46691 20.4087 0.761291 17.8105 0.546619 14.0313C0.26515 9.63937 4.45969 6.20356 8.70395 6.56549C9.31805 6.61786 9.93411 6.82396 10.4039 7.00212C10.5637 7.0627 10.7208 7.1258 10.8547 7.17957C10.9163 7.20431 10.973 7.22708 11.0228 7.24672C11.0793 7.26901 11.1278 7.28769 11.1694 7.30301C11.2111 7.28769 11.2596 7.26901 11.3161 7.24672C11.3658 7.22707 11.4225 7.20431 11.4842 7.17957C11.6181 7.12579 11.7752 7.0627 11.9349 7.00212C12.4047 6.82396 13.0208 6.61786 13.6349 6.56549C17.88 6.20349 22.0755 9.64081 21.792 14.0341L21.7914 14.0438ZM11.1694 8.0277C11.0502 8.00647 10.845 7.92406 10.5865 7.82023C10.0665 7.61139 9.3309 7.31592 8.64494 7.25743C4.7508 6.92535 0.988204 10.0892 1.2398 13.9894C1.64374 21.1252 7.63512 23.6536 11.1694 23.6536C14.5354 23.6536 20.4259 21.2599 21.099 13.9894C21.3507 10.0892 17.588 6.92535 13.6939 7.25743C13.0079 7.31592 12.2723 7.61139 11.7524 7.82023C11.4939 7.92406 11.2887 8.00647 11.1694 8.0277Z" fill="#A20505"/>
<path fill-rule="evenodd" clip-rule="evenodd" d="M2.83398 9.5853C4.24914 8.01437 6.42578 7.0681 8.64513 7.25736C9.33109 7.31586 10.0667 7.61133 10.5867 7.82016C10.8452 7.92399 11.0504 8.00641 11.1696 8.02763C11.2889 8.00641 11.4941 7.92399 11.7526 7.82016C12.2725 7.61133 13.0081 7.31586 13.6941 7.25736C16.0427 7.05708 18.3435 8.12845 19.7447 9.86606C17.918 8.9304 15.7206 8.43093 13.6941 8.60373C13.0082 8.66223 12.2725 8.9577 11.7526 9.16653C11.4941 9.27036 11.2889 9.35278 11.1696 9.374C11.0504 9.35278 10.8452 9.27036 10.5867 9.16653C10.0667 8.9577 9.33111 8.66223 8.64515 8.60373C6.55026 8.42509 4.51915 8.81391 2.83398 9.5853Z" fill="#E83214"/>
<path fill-rule="evenodd" clip-rule="evenodd" d="M4.46289 21.0276C6.27205 22.1626 8.28146 22.6438 9.82327 22.6438C13.1892 22.6438 19.0797 20.25 19.7529 12.9795C19.8729 11.12 19.0803 9.42783 17.796 8.20215C19.8371 9.38849 21.257 11.5442 21.0993 13.9893C20.4261 21.2598 14.5356 23.6536 11.1697 23.6536C9.23081 23.6536 6.55254 22.8927 4.46289 21.0276Z" fill="#E83214"/>
<path d="M11.6738 6.49817C14.03 4.39632 14.7032 6.75253 16.8911 7.08911C15.7857 7.29111 12.7908 7.46776 11.6738 6.49817Z" fill="#8ED918"/>
<path fill-rule="evenodd" clip-rule="evenodd" d="M10.9795 6.50281C10.9782 6.30324 11.0627 6.11274 11.2117 5.97989C11.8544 5.40651 12.4562 5.06938 13.0645 4.97088C13.6887 4.86977 14.2143 5.03694 14.6564 5.25811C14.8725 5.36624 15.0794 5.49279 15.2688 5.61141C15.3093 5.63676 15.3489 5.6617 15.3879 5.68626C15.5388 5.78128 15.6809 5.87075 15.8316 5.95777C16.2015 6.17136 16.5688 6.33683 16.9968 6.40267C17.3319 6.45423 17.5808 6.74025 17.5856 7.07929C17.5903 7.41832 17.3496 7.71122 17.016 7.77218C16.4111 7.88273 15.3324 7.98099 14.2519 7.92648C13.7098 7.89913 13.1469 7.83242 12.6325 7.7006C12.1271 7.57107 11.6132 7.36494 11.2187 7.02254C11.068 6.89171 10.9809 6.70237 10.9795 6.50281ZM12.2384 6.05602C12.061 6.17402 11.8735 6.32007 11.6739 6.49811C11.8458 6.64726 12.062 6.76929 12.309 6.86827C13.1284 7.19664 14.2859 7.2714 15.2808 7.24153C15.9356 7.22186 16.52 7.15688 16.8912 7.08904C16.3296 7.00265 15.8678 6.78319 15.4517 6.54022C15.3002 6.45171 15.1547 6.36009 15.0127 6.27064C14.1541 5.72998 13.4218 5.26876 12.2384 6.05602Z" fill="#436C02"/>
<path d="M11.1689 6.7525C9.8226 5.06949 8.30786 6.07928 5.44679 6.24758C6.62486 6.92078 9.85756 7.43668 11.1689 6.7525Z" fill="#8ED918"/>
<path fill-rule="evenodd" clip-rule="evenodd" d="M11.8488 6.89549C11.8916 6.69233 11.8413 6.48068 11.7116 6.31856C11.3103 5.81693 10.8646 5.479 10.3509 5.28862C9.84657 5.10169 9.33167 5.07775 8.82794 5.1129C8.40397 5.14247 7.94337 5.21851 7.47627 5.29562C7.4001 5.3082 7.32375 5.3208 7.24736 5.33323C6.68796 5.4243 6.08515 5.51426 5.40639 5.55419C5.0996 5.57223 4.84116 5.78977 4.77104 6.08898C4.70092 6.38819 4.8358 6.69791 5.10262 6.85038C5.81081 7.25507 7.02177 7.5669 8.1796 7.69889C8.77094 7.7663 9.37952 7.7906 9.93876 7.74933C10.4864 7.70892 11.0422 7.60197 11.4905 7.36804C11.6746 7.27201 11.8061 7.09865 11.8488 6.89549ZM10.6331 6.22472C10.8164 6.36026 10.9943 6.53355 11.1693 6.75236C10.9695 6.8566 10.7251 6.93299 10.4501 6.9852C9.46331 7.17259 8.08312 7.04863 6.9597 6.78384C6.34177 6.63819 5.80152 6.44993 5.44716 6.24744C6.01121 6.21426 6.52293 6.14837 6.99134 6.07686C7.2006 6.04492 7.40122 6.01185 7.59401 5.98007C8.87402 5.76908 9.80853 5.61505 10.6331 6.22472Z" fill="#436C02"/>
<path d="M8.79819 9.32391C9.48996 10.3533 8.79905 12.0289 7.25499 13.0666C5.71094 14.1043 3.89844 14.111 3.20667 13.0816C2.5149 12.0522 3.20581 10.3766 4.74986 9.33892C6.29391 8.30126 8.10641 8.29454 8.79819 9.32391Z" fill="#FE7B7B"/>
<path fill-rule="evenodd" clip-rule="evenodd" d="M5.93108 10.1413C6.15622 10.4518 6.08702 10.886 5.77653 11.1112C5.54925 11.276 5.37828 11.4684 5.25409 11.6899C5.06652 12.0245 4.64327 12.1436 4.30874 11.956C3.9742 11.7685 3.85506 11.3452 4.04263 11.0107C4.2698 10.6055 4.57917 10.2638 4.96122 9.98676C5.27172 9.76162 5.70594 9.83081 5.93108 10.1413Z" fill="white"/>
<path d="M17.2671 16.769C17.0449 17.0706 16.6202 17.135 16.3185 16.9127C16.0169 16.6905 15.9525 16.2658 16.1747 15.9642C16.397 15.6625 16.8217 15.5981 17.1233 15.8204C17.425 16.0426 17.4894 16.4673 17.2671 16.769Z" fill="#C5270E"/>
<path d="M18.3443 19.006C18.122 19.3077 17.6973 19.372 17.3957 19.1498C17.094 18.9276 17.0297 18.5029 17.2519 18.2012C17.4741 17.8996 17.8988 17.8352 18.2005 18.0574C18.5021 18.2797 18.5665 18.7044 18.3443 19.006Z" fill="#C5270E"/>
<path d="M19.1522 16.7112C18.9856 16.9375 18.667 16.9858 18.4408 16.8191C18.2146 16.6524 18.1663 16.3339 18.333 16.1076C18.4996 15.8814 18.8182 15.8331 19.0444 15.9998C19.2706 16.1665 19.3189 16.485 19.1522 16.7112Z" fill="#C5270E"/>
<path d="M16.6333 20.7641C16.4111 21.0657 15.9864 21.1301 15.6847 20.9079C15.3831 20.6856 15.3187 20.2609 15.541 19.9593C15.7632 19.6576 16.1879 19.5932 16.4895 19.8155C16.7912 20.0377 16.8556 20.4624 16.6333 20.7641Z" fill="#C5270E"/>
<path d="M15.981 18.56C15.7587 18.8616 15.3341 18.926 15.0324 18.7038C14.7308 18.4815 14.6664 18.0568 14.8886 17.7552C15.1109 17.4535 15.5356 17.3891 15.8372 17.6114C16.1388 17.8336 16.2032 18.2583 15.981 18.56Z" fill="#C5270E"/>
<path d="M14.104 21.7741C13.8818 22.0757 13.4571 22.1401 13.1554 21.9179C12.8538 21.6956 12.7894 21.2709 13.0117 20.9693C13.2339 20.6676 13.6586 20.6033 13.9602 20.8255C14.2619 21.0477 14.3263 21.4724 14.104 21.7741Z" fill="#C5270E"/>
<path d="M13.8394 19.6374C13.6171 19.939 13.1924 20.0034 12.8908 19.7811C12.5892 19.5589 12.5248 19.1342 12.747 18.8326C12.9693 18.5309 13.3939 18.4665 13.6956 18.6888C13.9972 18.911 14.0616 19.3357 13.8394 19.6374Z" fill="#C5270E"/>
<path d="M11.454 22.1363C11.2873 22.3625 10.9688 22.4108 10.7426 22.2441C10.5163 22.0774 10.468 21.7589 10.6347 21.5327C10.8014 21.3064 11.1199 21.2582 11.3462 21.4248C11.5724 21.5915 11.6207 21.91 11.454 22.1363Z" fill="#C5270E"/>
<path d="M22.9506 18.6711C18.8346 23.1028 14.905 30.9386 10.8259 27.0603C6.74673 23.182 14.3875 18.8747 18.5035 14.443C22.6196 10.0113 25.8494 8.56789 27.0774 9.73545C28.3054 10.903 27.0667 14.2393 22.9506 18.6711Z" fill="#00162B" fill-opacity="0.2"/>
<path fill-rule="evenodd" clip-rule="evenodd" d="M14.044 28.7324C12.7627 29.0615 11.4996 28.7253 10.3206 27.6043C9.14125 26.483 8.73736 25.2328 9.00308 23.9255C9.25187 22.7015 10.0686 21.5363 11.0474 20.455C12.0379 19.3606 13.2846 18.2574 14.5086 17.1763L14.5522 17.1378C15.7759 16.0569 16.9785 14.9948 17.9658 13.9318C20.0541 11.6833 21.9568 10.1486 23.5356 9.32581C24.3236 8.91519 25.0703 8.66113 25.7441 8.61073C26.4282 8.55957 27.0852 8.71843 27.5827 9.19142C28.0806 9.66482 28.2771 10.3182 28.2673 11.0117C28.2576 11.6942 28.0509 12.4622 27.6928 13.2812C26.9753 14.9222 25.5759 16.9346 23.4883 19.1823C22.5468 20.196 21.6115 21.3969 20.6573 22.6222C20.5958 22.7011 20.5343 22.7801 20.4727 22.8591C19.4662 24.1507 18.4353 25.4596 17.3959 26.5101C16.3682 27.5487 15.249 28.4229 14.044 28.7324ZM20.0836 22.1526C21.0319 20.9348 21.9861 19.7095 22.9506 18.6711C27.0667 14.2393 28.3054 10.903 27.0774 9.73545C25.8494 8.56789 22.6196 10.0113 18.5035 14.443C17.4909 15.5332 16.265 16.616 15.0527 17.6867C11.3373 20.9681 7.75026 24.1361 10.8259 27.0603C13.9492 30.0298 16.9848 26.1317 20.0836 22.1526Z" fill="#00162B" fill-opacity="0.2"/>
<path d="M27.6734 22.9696C22.8878 26.6491 18.5214 33.9189 14.4263 28.467C10.3312 23.015 18.4234 20.7054 23.209 17.0259C27.9945 13.3463 30.5236 13.5007 31.7564 15.142C32.9892 16.7833 32.4589 19.29 27.6734 22.9696Z" fill="#00162B" fill-opacity="0.2"/>
<path fill-rule="evenodd" clip-rule="evenodd" d="M17.5318 31.1718C16.1803 31.1365 14.951 30.3994 13.8388 28.9186C12.7266 27.4379 12.3539 26.0422 12.6823 24.7153C12.9988 23.4363 13.9291 22.393 15.0246 21.5003C16.1282 20.601 17.5087 19.7697 18.866 18.9568C18.899 18.937 18.932 18.9172 18.965 18.8975C20.3091 18.0925 21.6346 17.2988 22.7625 16.4315C25.1905 14.5646 27.1373 13.5952 28.7024 13.3508C29.4968 13.2268 30.211 13.2868 30.8373 13.5292C31.4662 13.7726 31.9628 14.183 32.3438 14.6903C32.7249 15.1976 32.9827 15.7916 33.046 16.4698C33.1091 17.1453 32.975 17.8576 32.6442 18.5987C31.9923 20.059 30.5478 21.6971 28.1198 23.5639C26.9919 24.4312 25.881 25.5107 24.7545 26.6053L24.6716 26.686C23.5339 27.7914 22.3725 28.9145 21.2206 29.7495C20.0772 30.5783 18.8345 31.2057 17.5318 31.1718ZM24.2578 26.0529C25.373 24.9692 26.5108 23.8634 27.6734 22.9696C32.4589 19.29 32.9892 16.7833 31.7564 15.142C30.5236 13.5007 27.9945 13.3463 23.209 17.0259C22.0464 17.9197 20.6887 18.7327 19.358 19.5296C15.211 22.013 11.326 24.3394 14.4263 28.467C17.5266 32.5945 20.7824 29.4305 24.2578 26.0529Z" fill="#00162B" fill-opacity="0.2"/>
<path d="M22.2127 17.9244C18.0966 22.3561 14.1671 30.1919 10.0879 26.3136C6.00877 22.4353 13.6495 18.128 17.7656 13.6963C21.8816 9.26458 25.1114 7.82122 26.3395 8.98877C27.5675 10.1563 26.3287 13.4927 22.2127 17.9244Z" fill="#4CAA1F"/>
<path fill-rule="evenodd" clip-rule="evenodd" d="M13.3062 27.9858C12.0249 28.3149 10.7619 27.9786 9.58284 26.8577C8.40349 25.7364 7.9996 24.4862 8.26531 23.1789C8.51411 21.9548 9.33086 20.7897 10.3096 19.7084C11.3001 18.614 12.5468 17.5108 13.7708 16.4297L13.8144 16.3912C15.0382 15.3103 16.2407 14.2482 17.2281 13.1851C19.3164 10.9367 21.219 9.40194 22.7979 8.57919C23.5859 8.16857 24.3325 7.91451 25.0063 7.86411C25.6904 7.81295 26.3474 7.97181 26.8449 8.44481C27.3428 8.9182 27.5393 9.57163 27.5295 10.2651C27.5198 10.9476 27.3131 11.7156 26.9551 12.5346C26.2376 14.1756 24.8382 16.1879 22.7505 18.4356C21.809 19.4494 20.8737 20.6503 19.9195 21.8756C19.858 21.9545 19.7965 22.0334 19.7349 22.1125C18.7284 23.404 17.6975 24.713 16.6581 25.7635C15.6304 26.8021 14.5113 27.6763 13.3062 27.9858ZM19.3458 21.4059C20.2942 20.1882 21.2484 18.9629 22.2128 17.9244C26.3289 13.4927 27.5677 10.1564 26.3396 8.98883C25.1116 7.82128 21.8818 9.26464 17.7658 13.6964C16.7532 14.7866 15.5272 15.8694 14.3149 16.94C10.5996 20.2214 7.01249 23.3895 10.0881 26.3137C13.2114 29.2832 16.2471 25.3851 19.3458 21.4059Z" fill="#2B710A"/>
<path fill-rule="evenodd" clip-rule="evenodd" d="M18.7298 18.3362C19.5829 17.221 20.4414 16.0988 21.318 15.1549C23.8216 12.4593 25.1138 10.1712 25.3267 8.60254C25.7438 8.61666 26.0846 8.7465 26.3394 8.98871C27.5674 10.1563 26.3287 13.4926 22.2126 17.9243C21.2481 18.9627 20.2939 20.1881 19.3456 21.4058C16.2468 25.385 13.2112 29.2831 10.0879 26.3135C8.61715 24.9153 8.66993 23.4612 9.53173 21.9656C9.68713 22.1704 9.87178 22.3755 10.0879 22.5809C13.2112 25.5504 15.9421 21.9805 18.7298 18.3362Z" fill="#419C15"/>
<path d="M22.0573 10.7248C22.576 11.5793 19.5473 15.5773 16.339 18.1901C14.3576 19.8037 10.8051 22.6693 10.6721 21.438C10.2554 20.9491 14.3701 17.3725 16.1545 15.9505C20.0282 12.8636 21.2847 10.0862 22.0573 10.7248Z" fill="#5FCF2A"/>
<path fill-rule="evenodd" clip-rule="evenodd" d="M14.5701 18.2994C14.7142 18.4451 14.7142 18.6815 14.5701 18.8272C14.0124 19.3915 13.5476 19.7564 12.9813 20.201C12.7789 20.3599 12.5635 20.529 12.3262 20.7211C12.1671 20.8499 11.935 20.8238 11.8077 20.6628C11.6804 20.5018 11.7062 20.2669 11.8653 20.1382C12.1225 19.9299 12.3484 19.7526 12.5553 19.5901C13.1076 19.1565 13.5257 18.8282 14.0484 18.2994C14.1925 18.1536 14.426 18.1536 14.5701 18.2994Z" fill="#A0EA29"/>
<path d="M27.0759 22.2736C22.2903 25.9532 17.9239 33.223 13.8288 27.771C9.73375 22.319 17.8259 20.0095 22.6115 16.3299C27.397 12.6503 29.9261 12.8048 31.1589 14.4461C32.3917 16.0874 31.8614 18.5941 27.0759 22.2736Z" fill="#58C923"/>
<path fill-rule="evenodd" clip-rule="evenodd" d="M16.9339 30.4757C15.5824 30.4405 14.3531 29.7033 13.2409 28.2226C12.1287 26.7419 11.756 25.3462 12.0844 24.0193C12.4009 22.7403 13.3312 21.697 14.4267 20.8043C15.5303 19.905 16.9108 19.0737 18.2681 18.2607C18.3011 18.241 18.3341 18.2212 18.3671 18.2014C19.7112 17.3965 21.0367 16.6027 22.1646 15.7355C24.5926 13.8686 26.5394 12.8991 28.1045 12.6548C28.8989 12.5307 29.6131 12.5908 30.2394 12.8332C30.8683 13.0766 31.3649 13.487 31.7459 13.9943C32.127 14.5016 32.3848 15.0956 32.4481 15.7738C32.5112 16.4493 32.3771 17.1616 32.0463 17.9027C31.3944 19.3629 29.9499 21.001 27.5219 22.8679C26.394 23.7352 25.2831 24.8147 24.1566 25.9093L24.0736 25.99C22.936 27.0954 21.7746 28.2184 20.6227 29.0534C19.4793 29.8822 18.2366 30.5097 16.9339 30.4757ZM23.6599 25.3569C24.7751 24.2732 25.9129 23.1674 27.0755 22.2735C31.861 18.594 32.3913 16.0873 31.1585 14.446C29.9256 12.8047 27.3966 12.6502 22.6111 16.3298C21.4485 17.2237 20.0908 18.0367 18.7601 18.8336C14.6131 21.317 10.7281 23.6434 13.8284 27.7709C16.9286 31.8985 20.1845 28.7344 23.6599 25.3569Z" fill="#2B710A"/>
<path fill-rule="evenodd" clip-rule="evenodd" d="M22.9222 23.8639C24.0374 22.7801 25.1752 21.6744 26.3377 20.7805C30.0393 17.9344 31.195 15.79 30.9581 14.2051C31.0285 14.2812 31.0952 14.3617 31.1586 14.446C32.3914 16.0873 31.8612 18.594 27.0756 22.2735C25.913 23.1674 24.7752 24.2732 23.66 25.3569C20.1846 28.7344 16.9288 31.8985 13.8285 27.7709C13.3423 27.1236 13.0279 26.5206 12.8594 25.9544C12.9317 26.061 13.0087 26.1688 13.0907 26.2779C16.1909 30.4054 19.4467 27.2414 22.9222 23.8639Z" fill="#4CAA1F"/>
<path d="M25.9653 16.5889C26.4839 17.4433 19.6588 22.2958 19.6588 22.2958C19.6588 22.2958 14.0397 25.6594 13.623 25.1704C13.2063 24.6815 15.7694 22.0909 17.8142 21.0902C23.1984 18.4552 25.1927 15.9503 25.9653 16.5889Z" fill="#79E645"/>
<path fill-rule="evenodd" clip-rule="evenodd" d="M20.1609 20.6163C20.2825 20.7817 20.2485 21.0155 20.0851 21.1386C19.6252 21.4847 18.8079 21.9574 18.0125 22.4174C17.9523 22.4522 17.8923 22.4869 17.8326 22.5215C16.9554 23.0294 16.1497 23.5037 15.7873 23.8116C15.6313 23.9441 15.3986 23.9236 15.2676 23.7657C15.1366 23.6079 15.1568 23.3724 15.3129 23.2399C15.7391 22.8778 16.619 22.364 17.4661 21.8736C17.5186 21.8432 17.5711 21.8128 17.6233 21.7826C18.4419 21.309 19.2226 20.8573 19.6447 20.5396C19.8081 20.4166 20.0392 20.4509 20.1609 20.6163Z" fill="white"/>
<path d="M19.9452 19.1076C19.9452 19.3739 19.7319 19.5898 19.4687 19.5898C19.2055 19.5898 18.9922 19.3739 18.9922 19.1076C18.9922 18.8413 19.2055 18.6255 19.4687 18.6255C19.7319 18.6255 19.9452 18.8413 19.9452 19.1076Z" fill="#47A21D"/>
<path d="M23.122 17.8217C23.122 18.088 22.9086 18.3039 22.6455 18.3039C22.3823 18.3039 22.1689 18.088 22.1689 17.8217C22.1689 17.5555 22.3823 17.3396 22.6455 17.3396C22.9086 17.3396 23.122 17.5555 23.122 17.8217Z" fill="#47A21D"/>
<path d="M25.0282 15.8933C25.0282 16.1595 24.8149 16.3754 24.5517 16.3754C24.2885 16.3754 24.0752 16.1595 24.0752 15.8933C24.0752 15.627 24.2885 15.4111 24.5517 15.4111C24.8149 15.4111 25.0282 15.627 25.0282 15.8933Z" fill="#47A21D"/>
<path d="M17.0859 21.6789C17.0859 21.9452 16.8725 22.161 16.6093 22.161C16.3462 22.161 16.1328 21.9452 16.1328 21.6789C16.1328 21.4126 16.3462 21.1968 16.6093 21.1968C16.8725 21.1968 17.0859 21.4126 17.0859 21.6789Z" fill="#47A21D"/>
<path d="M21.5338 17.9826C21.5338 18.1601 21.3916 18.304 21.2161 18.304C21.0407 18.304 20.8984 18.1601 20.8984 17.9826C20.8984 17.805 21.0407 17.6611 21.2161 17.6611C21.3916 17.6611 21.5338 17.805 21.5338 17.9826Z" fill="#47A21D"/>
<path d="M20.8981 19.5897C20.8981 19.7672 20.7558 19.9112 20.5804 19.9112C20.4049 19.9112 20.2627 19.7672 20.2627 19.5897C20.2627 19.4122 20.4049 19.2683 20.5804 19.2683C20.7558 19.2683 20.8981 19.4122 20.8981 19.5897Z" fill="#47A21D"/>
<path d="M23.7574 16.3754C23.7574 16.5529 23.6152 16.6968 23.4398 16.6968C23.2643 16.6968 23.1221 16.5529 23.1221 16.3754C23.1221 16.1979 23.2643 16.054 23.4398 16.054C23.6152 16.054 23.7574 16.1979 23.7574 16.3754Z" fill="#47A21D"/>
<path d="M26.2985 15.0897C26.2985 15.2672 26.1562 15.4112 25.9808 15.4112C25.8053 15.4112 25.6631 15.2672 25.6631 15.0897C25.6631 14.9122 25.8053 14.7683 25.9808 14.7683C26.1562 14.7683 26.2985 14.9122 26.2985 15.0897Z" fill="#47A21D"/>
<path d="M15.4977 22.161C15.4977 22.3385 15.3554 22.4824 15.18 22.4824C15.0045 22.4824 14.8623 22.3385 14.8623 22.161C14.8623 21.9835 15.0045 21.8396 15.18 21.8396C15.3554 21.8396 15.4977 21.9835 15.4977 22.161Z" fill="#47A21D"/>
<path d="M17.7213 20.5538C17.7213 20.7314 17.5791 20.8753 17.4036 20.8753C17.2282 20.8753 17.0859 20.7314 17.0859 20.5538C17.0859 20.3763 17.2282 20.2324 17.4036 20.2324C17.5791 20.2324 17.7213 20.3763 17.7213 20.5538Z" fill="#47A21D"/>
<path d="M19.3098 20.2324C19.3098 20.5875 19.0253 20.8753 18.6744 20.8753C18.3235 20.8753 18.0391 20.5875 18.0391 20.2324C18.0391 19.8774 18.3235 19.5896 18.6744 19.5896C19.0253 19.5896 19.3098 19.8774 19.3098 20.2324Z" fill="#47A21D"/>
<path d="M21.8724 24.5352C21.8724 24.8445 21.6246 25.0951 21.319 25.0951C21.0134 25.0951 20.7656 24.8445 20.7656 24.5352C20.7656 24.226 21.0134 23.9753 21.319 23.9753C21.6246 23.9753 21.8724 24.226 21.8724 24.5352Z" fill="#79E745"/>
<path d="M19.6585 28.2679C19.6585 28.5771 19.4108 28.8278 19.1051 28.8278C18.7995 28.8278 18.5518 28.5771 18.5518 28.2679C18.5518 27.9587 18.7995 27.708 19.1051 27.708C19.4108 27.708 19.6585 27.9587 19.6585 28.2679Z" fill="#79E745"/>
<path d="M25.5609 22.669C25.5609 22.9782 25.3131 23.2289 25.0075 23.2289C24.7019 23.2289 24.4541 22.9782 24.4541 22.669C24.4541 22.3598 24.7019 22.1091 25.0075 22.1091C25.3131 22.1091 25.5609 22.3598 25.5609 22.669Z" fill="#79E745"/>
<path d="M29.6195 19.3097C29.6195 19.6189 29.3717 19.8695 29.0661 19.8695C28.7605 19.8695 28.5127 19.6189 28.5127 19.3097C28.5127 19.0004 28.7605 18.7498 29.0661 18.7498C29.3717 18.7498 29.6195 19.0004 29.6195 19.3097Z" fill="#79E745"/>
<path d="M22.9791 25.0952C22.9791 25.3013 22.8139 25.4685 22.6101 25.4685C22.4064 25.4685 22.2412 25.3013 22.2412 25.0952C22.2412 24.889 22.4064 24.7219 22.6101 24.7219C22.8139 24.7219 22.9791 24.889 22.9791 25.0952Z" fill="#79E745"/>
<path d="M26.6685 21.7358C26.6685 21.942 26.5033 22.1091 26.2996 22.1091C26.0958 22.1091 25.9307 21.942 25.9307 21.7358C25.9307 21.5297 26.0958 21.3625 26.2996 21.3625C26.5033 21.3625 26.6685 21.5297 26.6685 21.7358Z" fill="#79E745"/>
<path d="M24.4542 23.6022C24.4542 24.0145 24.1239 24.3488 23.7164 24.3488C23.3089 24.3488 22.9785 24.0145 22.9785 23.6022C22.9785 23.1899 23.3089 22.8557 23.7164 22.8557C24.1239 22.8557 24.4542 23.1899 24.4542 23.6022Z" fill="#79E745"/>
<path d="M27.7745 20.6162C27.7745 21.0285 27.4442 21.3627 27.0367 21.3627C26.6292 21.3627 26.2988 21.0285 26.2988 20.6162C26.2988 20.2039 26.6292 19.8696 27.0367 19.8696C27.4442 19.8696 27.7745 20.2039 27.7745 20.6162Z" fill="#79E745"/>
<path d="M21.1339 26.5883C21.1339 27.0006 20.8036 27.3349 20.3961 27.3349C19.9885 27.3349 19.6582 27.0006 19.6582 26.5883C19.6582 26.176 19.9885 25.8418 20.3961 25.8418C20.8036 25.8418 21.1339 26.176 21.1339 26.5883Z" fill="#79E745"/>
</svg>
